<?xml version="1.0" encoding="UTF-8" standalone="no"?>
<!-- Created with Inkscape (http://www.inkscape.org/) -->
<svg xmlns:dc="http://purl.org/dc/elements/1.1/" xmlns:cc="http://creativecommons.org/ns#" xmlns:rdf="http://www.w3.org/1999/02/22-rdf-syntax-ns#" xmlns:svg="http://www.w3.org/2000/svg" xmlns="http://www.w3.org/2000/svg" xmlns:sodipodi="http://sodipodi.sourceforge.net/DTD/sodipodi-0.dtd" xmlns:inkscape="http://www.inkscape.org/namespaces/inkscape" width="64px" height="64px" id="svg2985" version="1.1" inkscape:version="0.48.4 r9939" sodipodi:docname="drawing.svg" inkscape:export-filename="/home/axitkhurana/Documents/Sugar/drawing.png" inkscape:export-xdpi="90" inkscape:export-ydpi="90">
  <defs id="defs2987"/>
  <sodipodi:namedview id="base" pagecolor="#ffffff" bordercolor="#666666" borderopacity="1.0" inkscape:pageopacity="0.0" inkscape:pageshadow="2" inkscape:zoom="5.5" inkscape:cx="28.991002" inkscape:cy="31.41623" inkscape:current-layer="layer1" showgrid="true" inkscape:document-units="px" inkscape:grid-bbox="true" inkscape:window-width="1309" inkscape:window-height="744" inkscape:window-x="57" inkscape:window-y="24" inkscape:window-maximized="1"/>
  <metadata id="metadata2990">
    <rdf:RDF>
      <cc:Work rdf:about="">
        <dc:format>image/svg+xml</dc:format>
        <dc:type rdf:resource="http://purl.org/dc/dcmitype/StillImage"/>
        <dc:title/>
      </cc:Work>
    </rdf:RDF>
  </metadata>
  <g id="layer1" inkscape:label="Layer 1" inkscape:groupmode="layer">
    <path style="fill:none;stroke:#000000;stroke-width:2.01230693;stroke-miterlimit:4;stroke-opacity:1;stroke-dasharray:none" d="m 30.981233,16.355585 c -6.859238,0 -12.668224,4.290805 -14.777881,10.218748 -0.824281,-0.216058 -1.68622,-0.314423 -2.578268,-0.314423 -5.6073491,0 -10.1558623,4.548513 -10.1558623,10.155862 0,5.607349 4.5485132,10.12442 10.1558623,10.12442 0.08488,0 0.167155,0.0021 0.251538,0 l 17.104611,0 23.550281,0 c 0.05322,0.0013 0.103671,0 0.157212,0 3.435133,0 6.225575,-2.759 6.225575,-6.194133 0,-3.435133 -2.790442,-6.225575 -6.225575,-6.225575 -0.04283,0 -0.08315,-8.61e-4 -0.125769,0 C 53.309817,30.761561 50.07389,28.310959 46.199305,28.020678 44.578916,21.352349 38.386207,16.355585 30.981233,16.355585 z" id="path3011" inkscape:connector-curvature="0"/>
  </g>
</svg>